<?xml version="1.0" encoding="UTF-8" standalone="no"?>
<svg
   xmlns:dc="http://purl.org/dc/elements/1.1/"
   xmlns:cc="http://creativecommons.org/ns#"
   xmlns:rdf="http://www.w3.org/1999/02/22-rdf-syntax-ns#"
   xmlns:svg="http://www.w3.org/2000/svg"
   xmlns="http://www.w3.org/2000/svg"
   xmlns:sodipodi="http://sodipodi.sourceforge.net/DTD/sodipodi-0.dtd"
   xmlns:inkscape="http://www.inkscape.org/namespaces/inkscape"
   width="24px"
   height="24px"
   viewBox="0 0 24 24"
   version="1.1"
   id="svg27"
   sodipodi:docname="ic-login-beige.svg"
   inkscape:version="0.92.3 (2405546, 2018-03-11)">
  <metadata
     id="metadata31">
    <rdf:RDF>
      <cc:Work
         rdf:about="">
        <dc:format>image/svg+xml</dc:format>
        <dc:type
           rdf:resource="http://purl.org/dc/dcmitype/StillImage" />
        <dc:title>ic_login</dc:title>
      </cc:Work>
    </rdf:RDF>
  </metadata>
  <sodipodi:namedview
     pagecolor="#ffffff"
     bordercolor="#666666"
     borderopacity="1"
     objecttolerance="10"
     gridtolerance="10"
     guidetolerance="10"
     inkscape:pageopacity="0"
     inkscape:pageshadow="2"
     inkscape:window-width="1920"
     inkscape:window-height="1057"
     id="namedview29"
     showgrid="false"
     inkscape:zoom="9.8333333"
     inkscape:cx="12"
     inkscape:cy="12"
     inkscape:window-x="1912"
     inkscape:window-y="-8"
     inkscape:window-maximized="1"
     inkscape:current-layer="svg27" />
  <!-- Generator: Sketch 41.2 (35397) - http://www.bohemiancoding.com/sketch -->
  <title
     id="title2">ic_login</title>
  <desc
     id="desc4">Created with Sketch.</desc>
  <defs
     id="defs19">
    <filter
       x="-50%"
       y="-50%"
       width="200%"
       height="200%"
       filterUnits="objectBoundingBox"
       id="filter-1">
      <feOffset
         dx="0"
         dy="2"
         in="SourceAlpha"
         result="shadowOffsetOuter1"
         id="feOffset6" />
      <feGaussianBlur
         stdDeviation="2"
         in="shadowOffsetOuter1"
         result="shadowBlurOuter1"
         id="feGaussianBlur8" />
      <feColorMatrix
         values="0 0 0 0 0   0 0 0 0 0   0 0 0 0 0  0 0 0 0.05 0"
         type="matrix"
         in="shadowBlurOuter1"
         result="shadowMatrixOuter1"
         id="feColorMatrix10" />
      <feMerge
         id="feMerge16">
        <feMergeNode
           in="shadowMatrixOuter1"
           id="feMergeNode12" />
        <feMergeNode
           in="SourceGraphic"
           id="feMergeNode14" />
      </feMerge>
    </filter>
  </defs>
  <g
     id="OPt-2"
     stroke="none"
     stroke-width="1"
     fill="none"
     fill-rule="evenodd">
    <g
       id="prog2_pro3_Mobile-Portrait_opt2-Copy-2"
       transform="translate(-283.000000, -19.000000)"
       fill="#000000">
      <g
         id="nav">
        <g
           id="Group-6"
           filter="url(#filter-1)">
          <g
             id="ic_login"
             transform="translate(287.000000, 21.000000)">
            <path
               d="M8,0 C10.209139,0 12,1.790861 12,4 C12,6.209139 10.209139,8 8,8 C5.790861,8 4,6.209139 4,4 C4,1.790861 5.790861,0 8,0 L8,0 Z M8,10 C12.42,10 16,11.79 16,14 L16,16 L0,16 L0,14 C0,11.79 3.58,10 8,10 Z"
               id="Shape" />
          </g>
        </g>
      </g>
    </g>
  </g>
  <path
     style="fill:#f5f5dc;fill-opacity:1;stroke-width:0.10169491"
     d="m 4.090369,16.733898 c 0.0027,-1.505135 0.120246,-1.829926 0.9301885,-2.570168 0.9307645,-0.850666 2.2345428,-1.441784 4.0713677,-1.845909 1.3019118,-0.286437 4.7638078,-0.259254 6.0514058,0.04752 2.372098,0.565153 3.955714,1.500835 4.546442,2.68627 0.23794,0.477482 0.262769,0.640738 0.262769,1.727681 v 1.200372 H 12.020339 4.0881356 Z"
     id="path3871"
     inkscape:connector-curvature="0" />
  <path
     style="fill:#f5f5dc;fill-opacity:1;stroke-width:0.10169491"
     d="M 10.952542,9.809786 C 9.7629518,9.4132374 8.9348868,8.6973602 8.4279047,7.6271911 8.1350669,7.0090509 8.1052554,6.8560353 8.1069223,5.979661 8.1085046,5.1478084 8.1466015,4.9322659 8.3810803,4.4285447 9.1313099,2.8168573 10.954893,1.8062928 12.573158,2.1054453 c 1.763903,0.3260752 2.998863,1.5503264 3.316375,3.2876154 0.300058,1.6417925 -0.706017,3.4833414 -2.302261,4.2141259 -0.691534,0.3165951 -1.992627,0.4166434 -2.63473,0.2025994 z"
     id="path3873"
     inkscape:connector-curvature="0" />
</svg>
