<?xml version="1.0" encoding="UTF-8" standalone="no"?>
<svg
   xmlns:dc="http://purl.org/dc/elements/1.1/"
   xmlns:cc="http://creativecommons.org/ns#"
   xmlns:rdf="http://www.w3.org/1999/02/22-rdf-syntax-ns#"
   xmlns:svg="http://www.w3.org/2000/svg"
   xmlns="http://www.w3.org/2000/svg"
   xmlns:sodipodi="http://sodipodi.sourceforge.net/DTD/sodipodi-0.dtd"
   xmlns:inkscape="http://www.inkscape.org/namespaces/inkscape"
   width="30px"
   height="28px"
   viewBox="0 0 30 28"
   version="1.1"
   id="svg27"
   sodipodi:docname="ic-online-beige.svg"
   inkscape:version="0.92.3 (2405546, 2018-03-11)">
  <metadata
     id="metadata31">
    <rdf:RDF>
      <cc:Work
         rdf:about="">
        <dc:format>image/svg+xml</dc:format>
        <dc:type
           rdf:resource="http://purl.org/dc/dcmitype/StillImage" />
        <dc:title>ic_online</dc:title>
      </cc:Work>
    </rdf:RDF>
  </metadata>
  <sodipodi:namedview
     pagecolor="#ffffff"
     bordercolor="#666666"
     borderopacity="1"
     objecttolerance="10"
     gridtolerance="10"
     guidetolerance="10"
     inkscape:pageopacity="0"
     inkscape:pageshadow="2"
     inkscape:window-width="1920"
     inkscape:window-height="1057"
     id="namedview29"
     showgrid="false"
     inkscape:zoom="8.4285714"
     inkscape:cx="15"
     inkscape:cy="14"
     inkscape:window-x="1912"
     inkscape:window-y="-8"
     inkscape:window-maximized="1"
     inkscape:current-layer="svg27" />
  <!-- Generator: Sketch 41.2 (35397) - http://www.bohemiancoding.com/sketch -->
  <title
     id="title2">ic_online</title>
  <desc
     id="desc4">Created with Sketch.</desc>
  <defs
     id="defs19">
    <filter
       x="-50%"
       y="-50%"
       width="200%"
       height="200%"
       filterUnits="objectBoundingBox"
       id="filter-1">
      <feOffset
         dx="0"
         dy="2"
         in="SourceAlpha"
         result="shadowOffsetOuter1"
         id="feOffset6" />
      <feGaussianBlur
         stdDeviation="2"
         in="shadowOffsetOuter1"
         result="shadowBlurOuter1"
         id="feGaussianBlur8" />
      <feColorMatrix
         values="0 0 0 0 0   0 0 0 0 0   0 0 0 0 0  0 0 0 0.05 0"
         type="matrix"
         in="shadowBlurOuter1"
         result="shadowMatrixOuter1"
         id="feColorMatrix10" />
      <feMerge
         id="feMerge16">
        <feMergeNode
           in="shadowMatrixOuter1"
           id="feMergeNode12" />
        <feMergeNode
           in="SourceGraphic"
           id="feMergeNode14" />
      </feMerge>
    </filter>
  </defs>
  <g
     id="OPt-2"
     stroke="none"
     stroke-width="1"
     fill="none"
     fill-rule="evenodd">
    <g
       id="prog2_pro3_Mobile-Portrait_opt2-Copy-2"
       transform="translate(-185.000000, -17.000000)"
       fill="#000000">
      <g
         id="nav">
        <g
           id="Group-6"
           filter="url(#filter-1)">
          <g
             id="ic_online"
             transform="translate(189.000000, 19.000000)">
            <path
               d="M20,12 L2,12 L2,2 L20,2 L20,12 Z M20,0 L2,0 C0.89,0 0,0.89 0,2 L0,14 C2.22044605e-16,15.1045695 0.8954305,16 2,16 L9,16 L7,19 L7,20 L15,20 L15,19 L13,16 L20,16 C21.1045695,16 22,15.1045695 22,14 L22,2 C22,0.89 21.1,0 20,0 Z"
               id="Shape" />
          </g>
        </g>
      </g>
    </g>
  </g>
  <path
     style="fill:#f5f5dc;fill-opacity:1;stroke-width:0.11864407"
     d="m 11.108662,21.421186 c 1.66e-4,-0.432343 0.135462,-0.70723 0.948965,-1.927966 0.521828,-0.783051 0.948862,-1.461698 0.948965,-1.508106 1.03e-4,-0.04641 -1.748329,-0.0998 -3.8854056,-0.118644 C 5.3191194,17.83294 5.2276188,17.826516 4.8646272,17.56759 4.0922714,17.016664 4.1084746,17.180144 4.1084746,9.9384464 c 0,-6.3994324 0.00569,-6.5620244 0.2432685,-6.946428 C 4.4855409,2.7755291 4.7721393,2.4889307 4.9886285,2.355133 5.3769876,2.1151138 5.5105858,2.1118644 14.990526,2.1118644 h 9.608281 l 0.39223,0.2669492 c 0.215726,0.146822 0.503918,0.4176862 0.640427,0.6019205 0.244934,0.3305682 0.248197,0.4228602 0.248197,7.0209609 0,6.5981 -0.0033,6.690392 -0.248197,7.020961 -0.136509,0.184234 -0.424701,0.455098 -0.640427,0.60192 -0.386379,0.262968 -0.448308,0.266949 -4.151521,0.266949 -2.067609,0 -3.79169,0.0324 -3.83129,0.072 -0.0396,0.0396 0.378622,0.746697 0.92938,1.571328 0.812207,1.216092 1.001377,1.583512 1.001377,1.944951 v 0.44562 h -3.915254 -3.915254 l 1.89e-4,-0.504238 z M 24.040678,8.9924792 V 3.8900431 l -9.04661,0.030402 -9.0466104,0.030402 -0.031001,4.9236536 c -0.017051,2.7080093 -0.00538,4.9904253 0.025937,5.0720343 0.044876,0.116944 1.9680827,0.14838 9.0776114,0.14838 h 9.020673 z"
     id="path3871"
     inkscape:connector-curvature="0" />
</svg>
